<svg xmlns="http://www.w3.org/2000/svg" width="18" height="18" viewBox="0 0 50 50" fill="currentColor">
  <path
    d="M 5.75 6 C 3.703125 6 2 7.703125 2 9.75 L 2 16.25 C 2 18.296875 3.703125 20 5.75 20 L 12 20 L 12 22 L 4 22 C 3.277344 21.988281 2.609375 22.367188 2.246094 22.992188 C 1.878906 23.613281 1.878906 24.386719 2.246094 25.007813 C 2.609375 25.632813 3.277344 26.011719 4 26 L 12.25 26 C 14.296875 26 16 24.296875 16 22.25 L 16 15.75 C 16.003906 15.6875 16.003906 15.625 16 15.5625 L 16 9.75 C 16 7.703125 14.296875 6 12.25 6 Z M 21.75 6 C 19.703125 6 18 7.703125 18 9.75 L 18 16.25 C 18 18.296875 19.703125 20 21.75 20 L 28.25 20 C 30.296875 20 32 18.296875 32 16.25 L 32 9.75 C 32 7.703125 30.296875 6 28.25 6 Z M 37.75 6 C 35.703125 6 34 7.703125 34 9.75 L 34 16.25 C 34 18.296875 35.703125 20 37.75 20 L 44 20 L 44 22 L 36 22 C 35.277344 21.988281 34.609375 22.367188 34.246094 22.992188 C 33.878906 23.613281 33.878906 24.386719 34.246094 25.007813 C 34.609375 25.632813 35.277344 26.011719 36 26 L 44.25 26 C 46.296875 26 48 24.296875 48 22.25 L 48 15.75 C 48.003906 15.6875 48.003906 15.625 48 15.5625 L 48 9.75 C 48 7.703125 46.296875 6 44.25 6 Z M 6 10 L 12 10 L 12 15.59375 C 11.996094 15.644531 11.996094 15.699219 12 15.75 L 12 16 L 6 16 Z M 22 10 L 28 10 L 28 16 L 22 16 Z M 38 10 L 44 10 L 44 15.59375 C 43.996094 15.644531 43.996094 15.699219 44 15.75 L 44 16 L 38 16 Z M 5.75 30 C 3.703125 30 2 31.703125 2 33.75 L 2 40.25 C 2 42.296875 3.703125 44 5.75 44 L 12 44 C 12.722656 44.011719 13.390625 43.632813 13.753906 43.007813 C 14.121094 42.386719 14.121094 41.613281 13.753906 40.992188 C 13.390625 40.367188 12.722656 39.988281 12 40 L 6 40 L 6 34 L 12 34 C 12.722656 34.011719 13.390625 33.632813 13.753906 33.007813 C 14.121094 32.386719 14.121094 31.613281 13.753906 30.992188 C 13.390625 30.367188 12.722656 29.988281 12 30 Z M 19.75 30 C 17.703125 30 16 31.703125 16 33.75 L 16 40.25 C 16 42.296875 17.703125 44 19.75 44 L 26.25 44 C 28.296875 44 29.996094 42.296875 30 40.25 L 30 33.75 C 30 31.703125 28.296875 30 26.25 30 Z M 38.65625 30 C 38.65625 30 37.933594 30 37.15625 30.03125 C 36.769531 30.046875 36.355469 30.066406 36 30.09375 C 35.824219 30.105469 35.667969 30.136719 35.5 30.15625 C 35.332031 30.175781 35.242188 30.152344 34.8125 30.3125 C 33.738281 30.714844 32.972656 31.429688 32.4375 32.4375 C 32.5 32.320313 32.355469 32.496094 32.21875 32.90625 C 32.082031 33.316406 32.078125 33.566406 32.0625 33.875 C 32.03125 34.496094 32.011719 35.507813 32 37.8125 C 31.992188 39.167969 32 40.203125 32 40.90625 C 32 41.257813 31.996094 41.515625 32 41.71875 C 32 41.820313 31.996094 41.914063 32 42 C 32 42.042969 31.992188 42.085938 32 42.15625 C 32.007813 42.226563 31.914063 42.171875 32.125 42.71875 C 32.453125 43.707031 33.484375 44.277344 34.492188 44.035156 C 35.503906 43.789063 36.160156 42.808594 36 41.78125 C 36 41.777344 36 41.722656 36 41.71875 C 36 41.703125 36 41.707031 36 41.6875 C 35.996094 41.527344 36 41.25 36 40.90625 C 36 40.21875 35.992188 39.199219 36 37.84375 C 36.011719 35.640625 36.011719 34.671875 36.03125 34.25 C 36.101563 34.183594 36.167969 34.117188 36.1875 34.09375 C 36.230469 34.089844 36.257813 34.097656 36.3125 34.09375 C 36.585938 34.074219 36.949219 34.046875 37.3125 34.03125 C 37.667969 34.015625 37.75 34.003906 38 34 L 38 42 C 37.988281 42.722656 38.367188 43.390625 38.992188 43.753906 C 39.613281 44.121094 40.386719 44.121094 41.007813 43.753906 C 41.632813 43.390625 42.011719 42.722656 42 42 L 42 34 C 42.800781 34 43.28125 34 44 34 L 44 42 C 43.988281 42.722656 44.367188 43.390625 44.992188 43.753906 C 45.613281 44.121094 46.386719 44.121094 47.007813 43.753906 C 47.632813 43.390625 48.011719 42.722656 48 42 L 48 30 L 46 30 C 46 30 39.59375 29.996094 38.6875 30 Z M 20 34 L 26 34 L 26 40 L 20 40 Z">
  </path>
</svg>